<svg width="193" height="49" viewBox="0 0 193 49" fill="none" xmlns="http://www.w3.org/2000/svg">
<path d="M24.3135 39.176C23.1295 39.176 21.8015 38.936 20.3295 38.456C18.8575 37.976 17.3375 37.4 15.7695 36.728C14.2335 36.056 12.7295 35.416 11.2575 34.808C10.4575 35.672 9.5935 36.344 8.6655 36.824C7.7375 37.304 6.7455 37.544 5.6895 37.544C4.5695 37.544 3.6095 37.288 2.8095 36.776C1.9775 36.296 1.3535 35.704 0.937501 35C0.489501 34.296 0.265501 33.656 0.265501 33.08C0.265501 32.44 0.553501 31.88 1.1295 31.4C1.7055 30.92 2.7295 30.68 4.2015 30.68C5.0655 30.68 6.0095 30.776 7.0335 30.968C8.0895 31.128 9.1615 31.352 10.2495 31.64C10.9855 30.36 11.6575 28.856 12.2655 27.128C12.9055 25.4 13.5295 23.592 14.1375 21.704C14.7455 19.784 15.3535 17.912 15.9615 16.088C14.3615 15.544 13.1295 14.792 12.2655 13.832C11.4015 12.84 10.9695 11.848 10.9695 10.856C10.9695 10.216 11.1295 9.592 11.4495 8.984C11.7695 8.344 12.2335 7.816 12.8415 7.4C13.4495 6.952 14.1695 6.728 15.0015 6.728C14.5855 7.24 14.3135 7.816 14.1855 8.456C14.0895 9.096 14.0415 9.608 14.0415 9.992C14.0415 11.048 14.2815 11.944 14.7615 12.68C15.2415 13.416 15.8335 13.992 16.5375 14.408C17.1455 12.584 17.7855 10.84 18.4575 9.176C19.1615 7.48 19.9295 5.992 20.7615 4.712C21.6255 3.4 22.5695 2.36 23.5935 1.592C24.6495 0.823998 25.8335 0.439999 27.1455 0.439999C27.8815 0.439999 28.6495 0.599998 29.4495 0.919998C30.2815 1.208 30.9855 1.72 31.5615 2.456C32.1695 3.192 32.4735 4.248 32.4735 5.624C32.4735 6.712 32.2335 7.88 31.7535 9.128C31.3055 10.376 30.5855 11.576 29.5935 12.728C28.6015 13.848 27.3215 14.792 25.7535 15.56C24.2175 16.296 22.3455 16.696 20.1375 16.76H19.7055C18.8095 19.544 17.8175 22.344 16.7295 25.16C15.6415 27.976 14.4415 30.392 13.1295 32.408C14.3775 32.76 15.7535 33.16 17.2575 33.608C18.7935 34.056 20.3135 34.44 21.8175 34.76C23.3535 35.048 24.6975 35.192 25.8495 35.192C26.6175 35.192 27.3215 35.112 27.9615 34.952C28.6335 34.76 29.3375 34.488 30.0735 34.136C29.4335 35.928 28.6335 37.208 27.6735 37.976C26.7455 38.776 25.6255 39.176 24.3135 39.176ZM20.2335 15.176C21.6415 15.08 22.8895 14.632 23.9775 13.832C25.0655 13.032 25.9935 12.072 26.7615 10.952C27.5295 9.832 28.1055 8.696 28.4895 7.544C28.9055 6.36 29.1135 5.336 29.1135 4.472C29.1135 3.64 28.9535 3.08 28.6335 2.792C28.3135 2.472 27.9455 2.312 27.5295 2.312C26.6015 2.312 25.7215 2.904 24.8895 4.088C24.0575 5.272 23.2575 6.84 22.4895 8.792C21.7535 10.712 21.0015 12.84 20.2335 15.176ZM5.2095 35.768C6.0415 35.768 6.7135 35.576 7.2255 35.192C7.7375 34.84 8.2495 34.392 8.7615 33.848C7.7695 33.496 6.8415 33.208 5.9775 32.984C5.1135 32.728 4.3615 32.6 3.7215 32.6C3.1135 32.6 2.6815 32.712 2.4255 32.936C2.1375 33.16 1.9935 33.432 1.9935 33.752C1.9935 34.264 2.3135 34.728 2.9535 35.144C3.5935 35.56 4.3455 35.768 5.2095 35.768ZM43.929 14.792C43.321 14.792 42.761 14.648 42.249 14.36C41.769 14.04 41.529 13.56 41.529 12.92C41.529 12.152 41.945 11.496 42.777 10.952C43.609 10.408 44.473 10.136 45.369 10.136C45.945 10.136 46.425 10.264 46.809 10.52C47.225 10.776 47.433 11.24 47.433 11.912C47.433 12.584 47.065 13.24 46.329 13.88C45.593 14.488 44.793 14.792 43.929 14.792ZM38.265 36.44C36.857 36.44 35.801 36.024 35.097 35.192C34.393 34.36 34.041 33.352 34.041 32.168C34.041 31.432 34.169 30.504 34.425 29.384C34.681 28.264 35.033 27.096 35.481 25.88C35.961 24.632 36.505 23.464 37.113 22.376C37.721 21.288 38.377 20.408 39.081 19.736C39.785 19.032 40.489 18.68 41.193 18.68C41.577 18.68 41.913 18.808 42.201 19.064C42.489 19.288 42.633 19.624 42.633 20.072C42.633 20.488 42.377 21.112 41.865 21.944C41.385 22.776 40.809 23.736 40.137 24.824C39.497 25.912 38.921 27.048 38.409 28.232C37.929 29.384 37.689 30.488 37.689 31.544C37.689 32.568 37.865 33.256 38.217 33.608C38.601 33.928 39.145 34.088 39.849 34.088C40.937 34.088 42.121 33.544 43.401 32.456C44.681 31.368 46.009 29.464 47.385 26.744L48.105 27.512C46.985 30.328 45.561 32.52 43.833 34.088C42.105 35.656 40.249 36.44 38.265 36.44ZM48.4957 48.44C48.1437 48.44 47.7277 48.328 47.2477 48.104C46.7357 47.88 46.3037 47.432 45.9517 46.76C45.5677 46.12 45.3757 45.144 45.3757 43.832C45.3757 42.456 45.6157 40.648 46.0957 38.408C46.5437 36.2 47.1837 33.752 48.0157 31.064C48.8157 28.344 49.7597 25.56 50.8477 22.712C51.9677 19.864 53.1517 17.128 54.3997 14.504C55.6797 11.848 56.9917 9.464 58.3357 7.352C59.7117 5.24 61.0717 3.56 62.4157 2.312C63.7597 1.064 65.0557 0.439999 66.3037 0.439999C67.1357 0.439999 67.6797 0.695998 67.9357 1.208C68.1917 1.688 68.3197 2.248 68.3197 2.888C68.3197 4.264 67.9357 5.768 67.1677 7.4C66.4317 9.032 65.4397 10.68 64.1917 12.344C62.9437 13.976 61.5357 15.528 59.9677 17C58.4317 18.472 56.8477 19.736 55.2157 20.792C55.0877 21.112 54.9597 21.432 54.8317 21.752C54.7037 22.072 54.5757 22.392 54.4477 22.712C54.7997 22.84 55.0717 23.064 55.2637 23.384C55.4877 23.704 55.6157 24.04 55.6477 24.392C55.9037 25.768 56.1597 27 56.4157 28.088C56.6717 29.144 57.0557 29.976 57.5677 30.584C58.1117 31.192 58.8797 31.496 59.8717 31.496C60.9917 31.496 61.9837 31.08 62.8477 30.248C63.7117 29.416 64.5917 28.248 65.4877 26.744L66.5437 27.512C65.5197 29.56 64.3677 31.064 63.0877 32.024C61.8077 32.952 60.6557 33.416 59.6317 33.416C58.5437 33.416 57.4077 32.984 56.2237 32.12C56.1917 34.104 55.9517 36.056 55.5037 37.976C55.0877 39.928 54.5117 41.688 53.7757 43.256C53.0397 44.824 52.2077 46.072 51.2797 47C50.3837 47.96 49.4557 48.44 48.4957 48.44ZM56.6077 17.432C58.5597 15.608 60.2237 13.832 61.5997 12.104C62.9757 10.376 64.0157 8.856 64.7197 7.544C65.4557 6.2 65.8237 5.256 65.8237 4.712C65.8237 4.456 65.6957 4.328 65.4397 4.328C64.6717 4.328 63.7917 4.92 62.7997 6.104C61.8077 7.256 60.7837 8.824 59.7277 10.808C58.6717 12.792 57.6317 15 56.6077 17.432ZM49.8397 45.464C50.2877 45.464 50.7677 45 51.2797 44.072C51.7917 43.144 52.2717 41.976 52.7197 40.568C53.1677 39.16 53.5357 37.688 53.8237 36.152C54.1117 34.648 54.2557 33.304 54.2557 32.12C54.2557 31.192 54.1437 30.376 53.9197 29.672C53.7277 28.936 53.3757 28.12 52.8637 27.224C51.7437 30.552 50.8317 33.656 50.1277 36.536C49.4237 39.416 49.0717 41.704 49.0717 43.4C49.0717 44.776 49.3277 45.464 49.8397 45.464ZM72.3555 37.112C70.3075 37.112 68.7235 36.552 67.6035 35.432C66.5155 34.344 65.9715 32.968 65.9715 31.304C65.9715 29.896 66.3235 28.408 67.0275 26.84C67.7635 25.24 68.7395 23.752 69.9555 22.376C71.1715 20.968 72.5155 19.832 73.9875 18.968C75.4595 18.104 76.9315 17.672 78.4035 17.672C79.2355 17.672 80.0195 17.896 80.7555 18.344C81.5235 18.76 81.9075 19.608 81.9075 20.888C81.9075 22.104 81.5555 23.24 80.8515 24.296C80.1475 25.352 79.2035 26.296 78.0195 27.128C76.8355 27.96 75.5235 28.648 74.0835 29.192C72.6755 29.704 71.2515 30.04 69.8115 30.2C69.7795 30.328 69.7475 30.472 69.7155 30.632C69.7155 30.76 69.7155 30.984 69.7155 31.304C69.7155 31.464 69.7315 31.752 69.7635 32.168C69.8275 32.552 69.9715 32.968 70.1955 33.416C70.4195 33.864 70.7875 34.248 71.2995 34.568C71.8115 34.888 72.5155 35.048 73.4115 35.048C74.7555 35.048 76.0995 34.68 77.4435 33.944C78.8195 33.176 80.0995 32.168 81.2835 30.92C82.4995 29.672 83.5075 28.28 84.3075 26.744L85.2675 27.512C84.4035 29.432 83.2835 31.112 81.9075 32.552C80.5635 33.992 79.0595 35.112 77.3955 35.912C75.7635 36.712 74.0835 37.112 72.3555 37.112ZM70.3395 28.424C71.1715 28.328 72.0995 28.04 73.1235 27.56C74.1475 27.08 75.1235 26.472 76.0515 25.736C77.0115 25 77.7955 24.2 78.4035 23.336C79.0115 22.44 79.3155 21.544 79.3155 20.648C79.3155 20.296 79.2515 20.056 79.1235 19.928C78.9955 19.8 78.7875 19.736 78.4995 19.736C77.7635 19.736 76.9955 20.008 76.1955 20.552C75.3955 21.064 74.6115 21.752 73.8435 22.616C73.0755 23.448 72.3875 24.376 71.7795 25.4C71.1715 26.424 70.6915 27.432 70.3395 28.424ZM109.44 39.176C107.744 39.048 106.624 38.632 106.08 37.928C105.568 37.224 105.312 36.344 105.312 35.288C105.312 34.104 105.52 32.68 105.936 31.016C106.352 29.352 106.896 27.576 107.568 25.688C108.24 23.8 108.976 21.928 109.776 20.072C109.424 20.104 108.864 20.152 108.096 20.216C107.36 20.28 106.592 20.36 105.792 20.456C105.024 20.52 104.4 20.6 103.92 20.696C104.016 19.704 104.384 18.936 105.024 18.392C105.696 17.816 106.544 17.4 107.568 17.144C108.624 16.888 109.76 16.744 110.976 16.712C111.808 14.408 112.656 12.168 113.52 9.992C114.416 7.784 115.312 5.768 116.208 3.944C116.016 3.912 115.792 3.896 115.536 3.896C115.28 3.864 114.928 3.848 114.48 3.848C112.528 3.848 111.008 4.056 109.92 4.472C108.864 4.888 108.128 5.48 107.712 6.248C107.328 7.016 107.136 7.96 107.136 9.08C107.136 9.88 107.216 10.616 107.376 11.288C107.536 11.928 107.776 12.632 108.096 13.4C106.592 13.144 105.52 12.664 104.88 11.96C104.24 11.224 103.92 10.312 103.92 9.224C103.92 7.56 104.528 6.088 105.744 4.808C106.992 3.528 108.656 2.52 110.736 1.784C112.848 1.048 115.216 0.679998 117.84 0.679998C119.536 0.679998 121.232 0.791999 122.928 1.016C124.624 1.24 126.208 1.352 127.68 1.352C128.48 1.352 129.248 1.304 129.984 1.208C130.72 1.08 131.568 0.888 132.528 0.631999C130.992 2.328 129.728 3.464 128.736 4.04C127.776 4.616 126.832 4.904 125.904 4.904C125.136 4.904 124.144 4.808 122.928 4.616C121.712 4.392 120.4 4.232 118.992 4.136C118.352 5.672 117.664 7.56 116.928 9.8C116.192 12.008 115.44 14.328 114.672 16.76C116.336 16.888 117.84 17.032 119.184 17.192C120.528 17.352 122.016 17.464 123.648 17.528C123.264 18.04 122.864 18.456 122.448 18.776C122.064 19.064 121.536 19.272 120.864 19.4C120.224 19.528 119.328 19.624 118.176 19.688C117.056 19.752 115.584 19.8 113.76 19.832C113.504 20.792 113.232 21.768 112.944 22.76C112.656 23.752 112.4 24.6 112.176 25.304C111.984 26.008 111.856 26.44 111.792 26.6C110.896 29.672 110.272 32.184 109.92 34.136C109.6 36.056 109.44 37.736 109.44 39.176ZM127.734 36.536C126.294 36.536 125.302 36.056 124.758 35.096C124.246 34.168 123.99 33.144 123.99 32.024C123.99 31 124.15 29.96 124.47 28.904C124.79 27.816 125.222 26.808 125.766 25.88C126.342 24.952 126.966 24.216 127.638 23.672C128.342 23.096 129.046 22.808 129.75 22.808C129.974 22.808 130.23 22.856 130.518 22.952C130.838 23.016 131.062 23.128 131.19 23.288C130.678 23.928 130.15 24.76 129.606 25.784C129.094 26.776 128.662 27.816 128.31 28.904C127.99 29.992 127.83 30.984 127.83 31.88C127.83 32.52 127.942 33.048 128.166 33.464C128.422 33.88 128.854 34.088 129.462 34.088C130.07 34.088 130.79 33.752 131.622 33.08C132.486 32.376 133.302 31.576 134.07 30.68C133.046 29.752 132.31 28.744 131.862 27.656C131.414 26.536 131.19 25.192 131.19 23.624C131.19 22.952 131.35 22.184 131.67 21.32C132.022 20.456 132.566 19.704 133.302 19.064C134.07 18.424 135.094 18.104 136.374 18.104C137.75 18.104 138.71 18.488 139.254 19.256C139.83 20.024 140.118 20.936 140.118 21.992C140.118 23.176 139.798 24.504 139.158 25.976C138.55 27.448 137.814 28.84 136.95 30.152C137.334 30.344 137.782 30.44 138.294 30.44C138.774 30.44 139.35 30.328 140.022 30.104C140.694 29.88 141.35 29.512 141.99 29C142.63 28.456 143.142 27.736 143.526 26.84L144.39 27.464C143.686 29.096 142.742 30.296 141.558 31.064C140.406 31.8 139.27 32.168 138.15 32.168C137.734 32.168 137.318 32.136 136.902 32.072C136.486 31.976 136.102 31.864 135.75 31.736C134.662 33.016 133.414 34.136 132.006 35.096C130.598 36.056 129.174 36.536 127.734 36.536ZM135.318 29.144C136.086 28.024 136.742 26.824 137.286 25.544C137.83 24.264 138.102 23.08 138.102 21.992C138.102 20.584 137.654 19.88 136.758 19.88C136.15 19.88 135.526 20.312 134.886 21.176C134.246 22.04 133.926 23.128 133.926 24.44C133.926 25.112 134.038 25.928 134.262 26.888C134.518 27.848 134.87 28.6 135.318 29.144ZM147.993 36.536C146.553 36.536 145.561 36.056 145.017 35.096C144.505 34.168 144.249 33.144 144.249 32.024C144.249 31 144.409 29.96 144.729 28.904C145.049 27.816 145.481 26.808 146.025 25.88C146.601 24.952 147.225 24.216 147.897 23.672C148.601 23.096 149.305 22.808 150.009 22.808C150.233 22.808 150.489 22.856 150.777 22.952C151.097 23.016 151.321 23.128 151.449 23.288C150.937 23.928 150.409 24.76 149.865 25.784C149.353 26.776 148.921 27.816 148.569 28.904C148.249 29.992 148.089 30.984 148.089 31.88C148.089 32.52 148.201 33.048 148.425 33.464C148.681 33.88 149.113 34.088 149.721 34.088C150.329 34.088 151.049 33.752 151.881 33.08C152.745 32.376 153.561 31.576 154.329 30.68C153.305 29.752 152.569 28.744 152.121 27.656C151.673 26.536 151.449 25.192 151.449 23.624C151.449 22.952 151.609 22.184 151.929 21.32C152.281 20.456 152.825 19.704 153.561 19.064C154.329 18.424 155.353 18.104 156.633 18.104C158.009 18.104 158.969 18.488 159.513 19.256C160.089 20.024 160.377 20.936 160.377 21.992C160.377 23.176 160.057 24.504 159.417 25.976C158.809 27.448 158.073 28.84 157.209 30.152C157.593 30.344 158.041 30.44 158.553 30.44C159.033 30.44 159.609 30.328 160.281 30.104C160.953 29.88 161.609 29.512 162.249 29C162.889 28.456 163.401 27.736 163.785 26.84L164.649 27.464C163.945 29.096 163.001 30.296 161.817 31.064C160.665 31.8 159.529 32.168 158.409 32.168C157.993 32.168 157.577 32.136 157.161 32.072C156.745 31.976 156.361 31.864 156.009 31.736C154.921 33.016 153.673 34.136 152.265 35.096C150.857 36.056 149.433 36.536 147.993 36.536ZM155.577 29.144C156.345 28.024 157.001 26.824 157.545 25.544C158.089 24.264 158.361 23.08 158.361 21.992C158.361 20.584 157.913 19.88 157.017 19.88C156.409 19.88 155.785 20.312 155.145 21.176C154.505 22.04 154.185 23.128 154.185 24.44C154.185 25.112 154.297 25.928 154.521 26.888C154.777 27.848 155.129 28.6 155.577 29.144ZM168.396 36.44C167.788 36.44 167.164 36.28 166.524 35.96C165.916 35.672 165.404 35.208 164.988 34.568C164.54 33.928 164.316 33.112 164.316 32.12C164.316 31.064 164.572 29.88 165.084 28.568C165.596 27.256 166.284 25.944 167.148 24.632C168.044 23.32 169.068 22.12 170.22 21.032C171.404 19.944 172.652 19.064 173.964 18.392C175.276 17.72 176.604 17.384 177.948 17.384C178.684 17.384 179.26 17.512 179.676 17.768C180.092 17.992 180.3 18.376 180.3 18.92C180.3 19.08 180.268 19.272 180.204 19.496C180.14 19.688 179.98 19.864 179.724 20.024C179.596 19.832 179.372 19.704 179.052 19.64C178.732 19.544 178.396 19.496 178.044 19.496C176.988 19.496 175.98 19.8 175.02 20.408C174.06 20.984 173.18 21.736 172.38 22.664C171.58 23.592 170.876 24.6 170.268 25.688C169.692 26.776 169.244 27.832 168.924 28.856C168.604 29.848 168.444 30.712 168.444 31.448C168.444 32.792 168.956 33.464 169.98 33.464C170.844 33.464 171.868 32.968 173.052 31.976C174.268 30.952 175.5 29.496 176.748 27.608C178.028 25.688 179.18 23.4 180.204 20.744C180.908 18.92 181.644 17.064 182.412 15.176C183.18 13.256 183.948 11.416 184.716 9.656C185.484 7.896 186.236 6.328 186.972 4.952C187.74 3.576 188.46 2.488 189.132 1.688C189.836 0.855999 190.476 0.439999 191.052 0.439999C191.404 0.439999 191.708 0.583999 191.964 0.871999C192.252 1.128 192.396 1.464 192.396 1.88C192.396 2.424 192.124 3.304 191.58 4.52C191.068 5.704 190.396 7.128 189.564 8.792C188.764 10.456 187.884 12.264 186.924 14.216C185.996 16.136 185.116 18.12 184.284 20.168C183.484 22.184 182.812 24.184 182.268 26.168C181.756 28.12 181.5 29.96 181.5 31.688C181.5 32.456 181.564 32.984 181.692 33.272C181.852 33.528 182.108 33.656 182.46 33.656C183.484 33.656 184.7 33.048 186.108 31.832C187.548 30.584 188.812 28.824 189.9 26.552L190.812 27.32C190.108 29.08 189.212 30.632 188.124 31.976C187.036 33.32 185.868 34.36 184.62 35.096C183.372 35.864 182.14 36.248 180.924 36.248C179.612 36.248 178.7 35.832 178.188 35C177.676 34.168 177.42 33.192 177.42 32.072C177.42 31.56 177.452 31.048 177.516 30.536C177.612 29.992 177.708 29.464 177.804 28.952C176.3 31.128 174.7 32.92 173.004 34.328C171.34 35.736 169.804 36.44 168.396 36.44Z" fill="black"/>
</svg>
